<svg width="50" height="50" version="1.1" xmlns="http://www.w3.org/2000/svg" desc="Created with imagetracer.js version 1.2.6" ><path fill="rgb(0,0,0)" stroke="rgb(0,0,0)" stroke-width="1" opacity="0" d="M 0 0 L 50 0 L 50 50 L 0 50 L 0 0 Z M 20 8 L 19 9 Q 16 8 17 11 L 15 11 L 10 17 Q 11 22 8 23 L 9 33 L 12 38 L 18 42 L 24 42 Q 26 38 28 42 L 33 42 L 37 40 L 42 32 Q 41 26 43 25 L 41 18 L 38 14 L 32 8 Q 27 7 26 10 Q 25 7 20 8 Z " /><path fill="rgb(0,0,0)" stroke="rgb(0,0,0)" stroke-width="1" opacity="0" d="M 20 11 Q 23 9.8 22 13.5 L 20 12.5 L 20 11 Z " /><path fill="rgb(0,0,0)" stroke="rgb(0,0,0)" stroke-width="1" opacity="0" d="M 28 11 Q 31.7 9.5 31 12.5 Q 28 13.8 29 18 Q 33.1 19.7 32 15.5 L 35 14 Q 36 17 33 16 L 33 19 L 30.5 19 L 29 21.5 L 29.5 23 L 28 22.5 L 28 11 Z " /><path fill="rgb(0,0,0)" stroke="rgb(0,0,0)" stroke-width="1" opacity="0" d="M 16.5 14 L 20.5 17 L 22 16.5 L 21.5 19 L 19 18 L 17.5 22 Q 13.8 22.8 13 20.5 L 13.5 18 Q 14.6 20.8 18 20 L 16.5 14 Z " /><path fill="rgb(0,0,0)" stroke="rgb(0,0,0)" stroke-width="1" opacity="0" d="M 36.5 18 Q 39.5 19.5 36.5 21 Q 33.5 19.5 36.5 18 Z " /><path fill="rgb(0,0,0)" stroke="rgb(0,0,0)" stroke-width="1" opacity="0" d="M 21.5 22 L 22 25 L 19 26.5 L 22 28 L 21.5 30 Q 20.5 27 15.5 28 Q 11.8 30 13.5 32 Q 10.9 32.8 12 29.5 L 18 27 Q 16.9 24.3 19.5 25 L 21.5 22 Z " /><path fill="rgb(0,0,0)" stroke="rgb(0,0,0)" stroke-width="1" opacity="0" d="M 31 22 Q 33.7 20.9 33 23.5 Q 35.8 25.3 31.5 27 L 29 28.5 Q 27.1 34.8 32 33 L 32.5 30 L 36 35.5 Q 33.7 39.2 31.5 34 Q 27.3 32.9 29 37 Q 32 36 31 39 L 28 38.5 L 28 26.5 L 31 25.5 L 31 22 Z " /><path fill="rgb(0,0,0)" stroke="rgb(0,0,0)" stroke-width="1" opacity="0" d="M 11.5 23 L 12.5 25 Q 9.7 25.7 11.5 23 Z " /><path fill="rgb(0,0,0)" stroke="rgb(0,0,0)" stroke-width="1" opacity="0" d="M 37.5 24 Q 40.1 23.3 39 26 Q 35.7 24.9 37 29 Q 39.7 27.9 39 30.5 Q 37.3 33.8 35.5 30 L 34 29.5 L 36 29 Q 35 25.2 37.5 24 Z " /><path fill="rgb(0,0,0)" stroke="rgb(0,0,0)" stroke-width="1" opacity="0" d="M 16 31 L 19 31 Q 17.8 34 21.5 33 L 21.5 34 L 17.5 32 L 16 32.5 L 16 31 Z " /><path fill="rgb(0,0,0)" stroke="rgb(0,0,0)" stroke-width="1" opacity="0" d="M 15 35 L 17 35.5 L 15 36.5 L 15 35 Z " /><path fill="rgb(0,0,0)" stroke="rgb(0,0,0)" stroke-width="1" opacity="0" d="M 20.5 37 Q 23.1 36.3 22 39 L 19 38.5 L 20.5 37 Z " /><path fill="rgb(240,248,251)" stroke="rgb(240,248,251)" stroke-width="1" opacity="0.3254901960784314" d="M 28.5 8 L 31 8.5 L 28.5 9 L 28.5 8 Z " /><path fill="rgb(240,248,251)" stroke="rgb(240,248,251)" stroke-width="1" opacity="0.3254901960784314" d="M 18.5 9 L 17.5 11 L 18.5 9 Z " /><path fill="rgb(240,248,251)" stroke="rgb(240,248,251)" stroke-width="1" opacity="0.3254901960784314" d="M 25.5 11 L 26 37.5 L 25 37.5 L 25.5 11 Z " /><path fill="rgb(240,248,251)" stroke="rgb(240,248,251)" stroke-width="1" opacity="0.3254901960784314" d="M 27.5 12 L 28 21.5 L 27 21.5 L 27.5 12 Z " /><path fill="rgb(240,248,251)" stroke="rgb(240,248,251)" stroke-width="1" opacity="0.3254901960784314" d="M 16.5 13 L 18.5 16 L 16.5 13 Z " /><path fill="rgb(240,248,251)" stroke="rgb(240,248,251)" stroke-width="1" opacity="0.3254901960784314" d="M 32.5 14 L 32 15.5 L 31.5 17 L 31 15.5 L 32.5 14 Z " /><path fill="rgb(240,248,251)" stroke="rgb(240,248,251)" stroke-width="1" opacity="0.3254901960784314" d="M 13.5 17 L 12.5 19 L 13.5 17 Z " /><path fill="rgb(240,248,251)" stroke="rgb(240,248,251)" stroke-width="1" opacity="0.3254901960784314" d="M 36.5 17 L 35.5 19 L 33.5 20 L 34.5 18 L 36.5 17 Z " /><path fill="rgb(240,248,251)" stroke="rgb(240,248,251)" stroke-width="1" opacity="0.3254901960784314" d="M 17.5 18 L 16.5 20 L 17.5 18 Z " /><path fill="rgb(240,248,251)" stroke="rgb(240,248,251)" stroke-width="1" opacity="0.3254901960784314" d="M 12.5 20 L 13.5 22 L 12.5 20 Z " /><path fill="rgb(240,248,251)" stroke="rgb(240,248,251)" stroke-width="1" opacity="0.3254901960784314" d="M 14.5 24 L 15.5 26 L 14.5 24 Z " /><path fill="rgb(240,248,251)" stroke="rgb(240,248,251)" stroke-width="1" opacity="0.3254901960784314" d="M 18.5 24 L 17.5 26 L 18.5 24 Z " /><path fill="rgb(240,248,251)" stroke="rgb(240,248,251)" stroke-width="1" opacity="0.3254901960784314" d="M 34.5 25 L 36 25.5 L 33.5 27 L 34.5 25 Z " /><path fill="rgb(240,248,251)" stroke="rgb(240,248,251)" stroke-width="1" opacity="0.3254901960784314" d="M 39.5 25 L 38.5 29 Q 35 27 39.5 25 Z " /><path fill="rgb(240,248,251)" stroke="rgb(240,248,251)" stroke-width="1" opacity="0.3254901960784314" d="M 35.5 27 L 34.5 29 L 35.5 27 Z " /><path fill="rgb(240,248,251)" stroke="rgb(240,248,251)" stroke-width="1" opacity="0.3254901960784314" d="M 16.5 28 L 19 28.5 L 16.5 29 L 16.5 28 Z " /><path fill="rgb(240,248,251)" stroke="rgb(240,248,251)" stroke-width="1" opacity="0.3254901960784314" d="M 20.5 29 L 23 33.5 L 21.5 36 L 23 36.5 L 21.5 37 L 19 35.5 L 22 33.5 L 20.5 29 Z " /><path fill="rgb(240,248,251)" stroke="rgb(240,248,251)" stroke-width="1" opacity="0.3254901960784314" d="M 29.5 29 L 31 32.5 L 29 31.5 L 29.5 29 Z " /><path fill="rgb(240,248,251)" stroke="rgb(240,248,251)" stroke-width="1" opacity="0.3254901960784314" d="M 35.5 30 L 37.5 33 L 35.5 30 Z " /><path fill="rgb(240,248,251)" stroke="rgb(240,248,251)" stroke-width="1" opacity="0.3254901960784314" d="M 34.5 32 L 35.5 34 L 34.5 32 Z " /><path fill="rgb(240,248,251)" stroke="rgb(240,248,251)" stroke-width="1" opacity="0.3254901960784314" d="M 30.5 34 L 31.5 38 Q 27 36 30.5 34 Z " /><path fill="rgb(240,248,251)" stroke="rgb(240,248,251)" stroke-width="1" opacity="0.3254901960784314" d="M 32.5 35 L 34.5 38 L 32.5 35 Z " /><path fill="rgb(240,248,251)" stroke="rgb(240,248,251)" stroke-width="1" opacity="0.3254901960784314" d="M 14.5 36 L 17 37.5 L 15.5 38 L 14.5 36 Z " /><path fill="rgb(240,248,251)" stroke="rgb(240,248,251)" stroke-width="1" opacity="0.3254901960784314" d="M 22.5 38 L 21.5 40 L 22.5 38 Z " /><path fill="rgb(244,250,251)" stroke="rgb(244,250,251)" stroke-width="1" opacity="0.5058823529411764" d="M 23.5 9 L 24.5 11 L 23.5 9 Z " /><path fill="rgb(244,250,251)" stroke="rgb(244,250,251)" stroke-width="1" opacity="0.5058823529411764" d="M 28.5 10 L 27.5 12 L 28.5 10 Z " /><path fill="rgb(244,250,251)" stroke="rgb(244,250,251)" stroke-width="1" opacity="0.5058823529411764" d="M 30.5 10 L 32 12.5 L 31 12.5 L 30.5 10 Z " /><path fill="rgb(244,250,251)" stroke="rgb(244,250,251)" stroke-width="1" opacity="0.5058823529411764" d="M 14.5 12 L 13.5 14 L 14.5 12 Z " /><path fill="rgb(244,250,251)" stroke="rgb(244,250,251)" stroke-width="1" opacity="0.5058823529411764" d="M 29.5 15 L 31 17.5 L 29 16.5 L 29.5 15 Z " /><path fill="rgb(244,250,251)" stroke="rgb(244,250,251)" stroke-width="1" opacity="0.5058823529411764" d="M 11.5 22 L 11 23.5 L 10.5 25 L 10 23.5 L 11.5 22 Z " /><path fill="rgb(244,250,251)" stroke="rgb(244,250,251)" stroke-width="1" opacity="0.5058823529411764" d="M 20.5 22 L 19.5 24 L 20.5 22 Z " /><path fill="rgb(244,250,251)" stroke="rgb(244,250,251)" stroke-width="1" opacity="0.5058823529411764" d="M 21.5 25 L 20.5 27 L 21.5 25 Z " /><path fill="rgb(244,250,251)" stroke="rgb(244,250,251)" stroke-width="1" opacity="0.5058823529411764" d="M 28.5 25 L 28 26.5 L 27.5 38 L 27 26.5 L 28.5 25 Z " /><path fill="rgb(244,250,251)" stroke="rgb(244,250,251)" stroke-width="1" opacity="0.5058823529411764" d="M 9.5 28 L 10 30.5 L 9 30.5 L 9.5 28 Z " /><path fill="rgb(245,250,251)" stroke="rgb(245,250,251)" stroke-width="1" opacity="0.6588235294117647" d="M 24.5 11 L 25 37.5 L 24 37.5 L 24.5 11 Z " /><path fill="rgb(245,250,251)" stroke="rgb(245,250,251)" stroke-width="1" opacity="0.6588235294117647" d="M 20.5 14 L 21 16 L 19 15.5 L 20.5 14 Z " /><path fill="rgb(245,250,251)" stroke="rgb(245,250,251)" stroke-width="1" opacity="0.6588235294117647" d="M 20.5 19 L 19.5 21 L 20.5 19 Z " /><path fill="rgb(245,250,251)" stroke="rgb(245,250,251)" stroke-width="1" opacity="0.6588235294117647" d="M 40.5 21 L 39.5 23 L 40.5 21 Z " /><path fill="rgb(245,250,251)" stroke="rgb(245,250,251)" stroke-width="1" opacity="0.6588235294117647" d="M 10.5 25 L 11.5 27 L 9 26.5 L 10.5 25 Z " /><path fill="rgb(245,250,251)" stroke="rgb(245,250,251)" stroke-width="1" opacity="0.6588235294117647" d="M 30.5 28 L 31.5 30 L 30.5 28 Z " /><path fill="rgb(245,250,251)" stroke="rgb(245,250,251)" stroke-width="1" opacity="0.6588235294117647" d="M 17.5 36 L 18.5 38 L 17.5 36 Z " /><path fill="rgb(245,250,251)" stroke="rgb(245,250,251)" stroke-width="1" opacity="0.6588235294117647" d="M 27.5 38 L 26.5 40 L 27.5 38 Z " /><path fill="rgb(248,251,251)" stroke="rgb(248,251,251)" stroke-width="1" opacity="0.8431372549019608" d="M 13.5 33 L 13.5 36 Q 10.5 34.5 13.5 33 Z " /><path fill="rgb(218,245,252)" stroke="rgb(218,245,252)" stroke-width="1" opacity="0.08235294117647059" d="M 22.5 8 L 26 10.5 L 23.5 9 L 22.5 8 Z " /><path fill="rgb(218,245,252)" stroke="rgb(218,245,252)" stroke-width="1" opacity="0.08235294117647059" d="M 14.5 11 L 13.5 13 L 14.5 11 Z " /><path fill="rgb(218,245,252)" stroke="rgb(218,245,252)" stroke-width="1" opacity="0.08235294117647059" d="M 19.5 11 L 21.5 14 L 22.5 11 L 23 23.5 L 22 23.5 L 21 19 L 19 18.5 L 20.5 18 L 22 18.5 L 21.5 16 L 19.5 17 L 19.5 16 Q 21.8 16.8 21 14.5 Q 18 13.5 19.5 11 Z " /><path fill="rgb(218,245,252)" stroke="rgb(218,245,252)" stroke-width="1" opacity="0.08235294117647059" d="M 12.5 14 L 10.5 17 L 12.5 14 Z " /><path fill="rgb(218,245,252)" stroke="rgb(218,245,252)" stroke-width="1" opacity="0.08235294117647059" d="M 15.5 14 L 18 17.5 L 15 15.5 L 15.5 14 Z " /><path fill="rgb(218,245,252)" stroke="rgb(218,245,252)" stroke-width="1" opacity="0.08235294117647059" d="M 38.5 15 L 41 17.5 L 42 21.5 L 40 20.5 Q 40.5 15.8 38.5 15 Z " /><path fill="rgb(218,245,252)" stroke="rgb(218,245,252)" stroke-width="1" opacity="0.08235294117647059" d="M 33.5 16 L 36.5 21 L 38 20.5 L 36.5 22 L 33 18.5 L 33.5 16 Z " /><path fill="rgb(218,245,252)" stroke="rgb(218,245,252)" stroke-width="1" opacity="0.08235294117647059" d="M 14.5 18 L 15.5 20 L 14.5 18 Z " /><path fill="rgb(218,245,252)" stroke="rgb(218,245,252)" stroke-width="1" opacity="0.08235294117647059" d="M 32.5 21 L 34 24 L 37 24.5 L 32.5 27 L 34 24.5 L 33 23.5 L 32.5 21 Z " /><path fill="rgb(218,245,252)" stroke="rgb(218,245,252)" stroke-width="1" opacity="0.08235294117647059" d="M 30.5 22 L 31 24 L 29 23.5 L 30.5 22 Z " /><path fill="rgb(218,245,252)" stroke="rgb(218,245,252)" stroke-width="1" opacity="0.08235294117647059" d="M 20.5 23 L 19.5 25 L 20.5 23 Z " /><path fill="rgb(218,245,252)" stroke="rgb(218,245,252)" stroke-width="1" opacity="0.08235294117647059" d="M 38.5 23 Q 40.8 22.3 40 24.5 L 38.5 23 Z " /><path fill="rgb(218,245,252)" stroke="rgb(218,245,252)" stroke-width="1" opacity="0.08235294117647059" d="M 13.5 24 L 14 26 L 18 26.5 L 15 27.5 L 15.5 29 L 14 26 L 11 25.5 L 13.5 24 Z " /><path fill="rgb(218,245,252)" stroke="rgb(218,245,252)" stroke-width="1" opacity="0.08235294117647059" d="M 19.5 26 L 23 27 L 22.5 33 L 22 28 L 19.5 29 L 19.5 26 Z " /><path fill="rgb(218,245,252)" stroke="rgb(218,245,252)" stroke-width="1" opacity="0.08235294117647059" d="M 29.5 26 Q 32.5 27.5 29.5 29 L 29.5 26 Z " /><path fill="rgb(218,245,252)" stroke="rgb(218,245,252)" stroke-width="1" opacity="0.08235294117647059" d="M 12.5 28 L 11.5 30 L 12.5 28 Z " /><path fill="rgb(218,245,252)" stroke="rgb(218,245,252)" stroke-width="1" opacity="0.08235294117647059" d="M 32.5 29 Q 35.1 28.2 34 31.5 L 33 31.5 L 32.5 29 Z " /><path fill="rgb(218,245,252)" stroke="rgb(218,245,252)" stroke-width="1" opacity="0.08235294117647059" d="M 13.5 32 L 16.5 33 L 18 32.5 L 16.5 35 L 16 33 Q 12.7 33.8 13.5 32 Z " /><path fill="rgb(218,245,252)" stroke="rgb(218,245,252)" stroke-width="1" opacity="0.08235294117647059" d="M 40.5 33 L 39 35.5 L 38.5 37 L 38 35.5 L 40.5 33 Z " /><path fill="rgb(218,245,252)" stroke="rgb(218,245,252)" stroke-width="1" opacity="0.08235294117647059" d="M 19 36 L 21 36.5 L 19 37.5 L 19 36 Z " /><path fill="rgb(218,245,252)" stroke="rgb(218,245,252)" stroke-width="1" opacity="0.08235294117647059" d="M 25.5 38 L 28 41.5 L 25.5 40 L 23 41.5 L 25.5 38 Z " /><path fill="rgb(218,245,252)" stroke="rgb(218,245,252)" stroke-width="1" opacity="0.08235294117647059" d="M 31.5 38 L 30.5 40 L 29 39.5 L 31.5 38 Z " /><path fill="rgb(218,245,252)" stroke="rgb(218,245,252)" stroke-width="1" opacity="0.08235294117647059" d="M 37.5 38 L 36.5 40 L 37.5 38 Z " /><path fill="rgb(218,245,252)" stroke="rgb(218,245,252)" stroke-width="1" opacity="0.08235294117647059" d="M 16.5 40 L 17.5 42 L 16.5 40 Z " /><path fill="rgb(218,245,252)" stroke="rgb(218,245,252)" stroke-width="1" opacity="0.08235294117647059" d="M 33.5 40 L 32.5 42 L 33.5 40 Z " /><path fill="rgb(249,252,252)" stroke="rgb(249,252,252)" stroke-width="1" opacity="0.9411764705882353" d="M 30.5 9 L 31.5 11 L 30.5 9 Z " /><path fill="rgb(249,252,252)" stroke="rgb(249,252,252)" stroke-width="1" opacity="0.9411764705882353" d="M 18.5 13 L 19.5 15 L 18.5 13 Z " /><path fill="rgb(249,252,252)" stroke="rgb(249,252,252)" stroke-width="1" opacity="0.9411764705882353" d="M 13.5 15 L 12 17.5 L 11.5 19 L 11 17.5 L 13.5 15 Z " /><path fill="rgb(249,252,252)" stroke="rgb(249,252,252)" stroke-width="1" opacity="0.9411764705882353" d="M 36.5 37 L 35.5 39 L 36.5 37 Z " /><path fill="rgb(250,252,252)" stroke="rgb(250,252,252)" stroke-width="1" opacity="0.9803921568627451" d="M 26.5 11 L 27 23.5 L 28 24.5 L 27 25.5 L 26.5 38 L 26.5 11 Z " /><path fill="rgb(250,252,252)" stroke="rgb(250,252,252)" stroke-width="1" opacity="0.9803921568627451" d="M 36.5 14 L 39 17.5 L 36 15.5 L 36.5 14 Z " /><path fill="rgb(250,252,252)" stroke="rgb(250,252,252)" stroke-width="1" opacity="0.9803921568627451" d="M 14.5 16 L 15.5 18 L 14.5 16 Z " /><path fill="rgb(250,252,252)" stroke="rgb(250,252,252)" stroke-width="1" opacity="0.9803921568627451" d="M 33.5 20 L 34.5 22 L 33.5 20 Z " /><path fill="rgb(250,252,252)" stroke="rgb(250,252,252)" stroke-width="1" opacity="0.9803921568627451" d="M 39.5 21 L 40.5 23 L 39.5 21 Z " /><path fill="rgb(250,252,252)" stroke="rgb(250,252,252)" stroke-width="1" opacity="0.9803921568627451" d="M 10.5 26 Q 13.5 27.5 10.5 29 L 10.5 26 Z " /><path fill="rgb(250,252,252)" stroke="rgb(250,252,252)" stroke-width="1" opacity="0.9803921568627451" d="M 17.5 38 L 19 40.5 L 17 39.5 L 17.5 38 Z " /><path fill="rgb(250,252,252)" stroke="rgb(250,252,252)" stroke-width="1" opacity="0.9803921568627451" d="M 32.5 39 L 31.5 41 L 32.5 39 Z " /><path fill="rgb(249,252,252)" stroke="rgb(249,252,252)" stroke-width="1" opacity="0.9137254901960784" d="M 18.5 36 L 17.5 38 L 18.5 36 Z " /><path fill="rgb(247,251,251)" stroke="rgb(247,251,251)" stroke-width="1" opacity="0.7568627450980392" d="M 31.5 9 L 33.5 12 L 31.5 9 Z " /><path fill="rgb(247,251,251)" stroke="rgb(247,251,251)" stroke-width="1" opacity="0.7568627450980392" d="M 35.5 12 L 36.5 14 L 35.5 12 Z " /><path fill="rgb(247,251,251)" stroke="rgb(247,251,251)" stroke-width="1" opacity="0.7568627450980392" d="M 13.5 14 L 14.5 16 L 13.5 14 Z " /><path fill="rgb(247,251,251)" stroke="rgb(247,251,251)" stroke-width="1" opacity="0.7568627450980392" d="M 40.5 27 L 39.5 29 L 40.5 27 Z " /><path fill="rgb(247,251,251)" stroke="rgb(247,251,251)" stroke-width="1" opacity="0.7568627450980392" d="M 15.5 29 L 14.5 31 L 15.5 29 Z " /><path fill="rgb(247,252,253)" stroke="rgb(247,252,253)" stroke-width="1" opacity="0.8196078431372549" d="M 23.5 12 L 24 22.5 L 23 22.5 L 23.5 12 Z " /><path fill="rgb(247,252,253)" stroke="rgb(247,252,253)" stroke-width="1" opacity="0.8196078431372549" d="M 36.5 22 L 35.5 24 L 36.5 22 Z " /><path fill="rgb(247,252,253)" stroke="rgb(247,252,253)" stroke-width="1" opacity="0.8196078431372549" d="M 23.5 27 L 24 32.5 L 23 32.5 L 23.5 27 Z " /><path fill="rgb(247,252,253)" stroke="rgb(247,252,253)" stroke-width="1" opacity="0.8196078431372549" d="M 13.5 37 L 14.5 39 L 13.5 37 Z " /></svg>